<?xml version="1.0" encoding="UTF-8"?>
<svg id="update_black_24dp_1_" data-name="update_black_24dp (1)" xmlns="http://www.w3.org/2000/svg" width="24" height="24" viewBox="0 0 24 24">
  <g id="Group_538" data-name="Group 538">
    <rect id="Rectangle_533" data-name="Rectangle 533" width="24" height="24" fill="none"/>
  </g>
  <g id="Group_540" data-name="Group 540">
    <g id="Group_539" data-name="Group 539">
      <path id="Path_205" data-name="Path 205" d="M11,8.75v3.68a1.012,1.012,0,0,0,.49.86l3.12,1.85a.758.758,0,0,0,1.03-.26.749.749,0,0,0-.26-1.03l-2.87-1.71V8.74A.769.769,0,0,0,11.75,8,.755.755,0,0,0,11,8.75ZM21,9.5V4.21a.5.5,0,0,0-.85-.35L18.37,5.64a9,9,0,1,0,2.56,7.48,1,1,0,0,0-1-1.12.984.984,0,0,0-.98.86A7.015,7.015,0,0,1,11.9,19,7.1,7.1,0,0,1,5,12.1,7,7,0,0,1,16.95,7.05L14.86,9.14a.5.5,0,0,0,.35.86H20.5A.5.5,0,0,0,21,9.5Z"/>
    </g>
  </g>
</svg>
